<svg xmlns="http://www.w3.org/2000/svg" xmlns:xlink="http://www.w3.org/1999/xlink" fill="#00bbff" x="0px" y="0px" viewBox="0 0 60 60" width="60" height="60" style="enable-background:new 0 0 60 60;" xml:space="preserve"><g>	<defs>		<rect width="60" height="60"></rect>	</defs>	<clipPath>		<use xlink:href="/#SVGID_1_" style="overflow:visible;"></use>	</clipPath>		<path class="st0" d="M53,4.7h-6.6V0H13.6v4.7H7c-3.9,0-7,3.2-7,7C0,20.1,5.9,26.9,13.7,28c1,7.2,6.7,13,13.9,14v3.9h-2.3  c-3.9,0-7,3.2-7,7v7h23.4v-7c0-3.9-3.2-7-7-7h-2.3V42c7.2-1,12.9-6.8,13.9-14C54.1,26.9,60,20.1,60,11.7C60,7.8,56.8,4.7,53,4.7z   M13.6,23.2c-5.1-1.1-8.9-5.7-8.9-11.5c0-1.3,1.1-2.3,2.3-2.3h6.6V23.2z M34.7,50.6c1.3,0,2.3,1.1,2.3,2.3v2.3H23V53  c0-1.3,1.1-2.3,2.3-2.3H34.7z M41.7,25.8c0,6.5-5.3,11.7-11.7,11.7s-11.7-5.3-11.7-11.7V4.7h23.4V25.8z M46.4,23.2V9.4H53  c1.3,0,2.3,1.1,2.3,2.3C55.3,17.5,51.6,22.1,46.4,23.2z M30,28.1c3.9,0,7-3.2,7-7c0-3.9-3.2-7-7-7s-7,3.2-7,7  C23,25,26.1,28.1,30,28.1z M30,18.8c1.3,0,2.3,1.1,2.3,2.3c0,1.3-1.1,2.3-2.3,2.3s-2.3-1.1-2.3-2.3C27.7,19.8,28.7,18.8,30,18.8z"></path></g></svg>